<?xml version="1.0" standalone="no"?>
<!DOCTYPE svg PUBLIC "-//W3C//DTD SVG 20010904//EN"
 "http://www.w3.org/TR/2001/REC-SVG-20010904/DTD/svg10.dtd">
<svg version="1.0" xmlns="http://www.w3.org/2000/svg"
 width="1000.000000pt" height="1000.000000pt" viewBox="0 0 1000.000000 1000.000000"
 preserveAspectRatio="xMidYMid meet">
<metadata>
Created by potrace 1.11, written by Peter Selinger 2001-2013
</metadata>
<g transform="translate(0.000000,1000.000000) scale(0.100000,-0.100000)"
fill="#000000" stroke="none">
<path d="M4392 9933 c-14 -22 -21 -23 -138 -23 -123 0 -124 0 -124 -23 0 -23
0 -23 -145 -22 -80 0 -150 -2 -156 -6 -6 -3 -9 -12 -7 -20 2 -11 -15 -15 -84
-17 -81 -3 -86 -4 -92 -27 -5 -20 -11 -23 -46 -21 -33 2 -40 0 -40 -15 0 -25
-14 -31 -78 -33 -52 -1 -57 -3 -56 -23 1 -22 -3 -23 -68 -23 -61 0 -68 -2 -68
-20 0 -21 -10 -24 -87 -22 -39 1 -43 -1 -43 -23 0 -23 -4 -25 -45 -25 -37 0
-45 -3 -45 -19 0 -23 -16 -30 -58 -26 -28 2 -32 -1 -32 -21 0 -24 -2 -24 -91
-24 -76 0 -90 -2 -86 -15 8 -19 -10 -30 -48 -30 -22 0 -33 -6 -40 -22 -8 -18
-18 -23 -47 -23 -32 0 -39 -4 -44 -25 -4 -16 -13 -25 -25 -25 -12 0 -19 -7
-19 -20 0 -13 -7 -20 -20 -20 -19 0 -24 -10 -21 -37 1 -9 -13 -13 -44 -13 -38
0 -45 -3 -45 -20 0 -13 -7 -20 -20 -20 -13 0 -22 -9 -26 -25 -5 -21 -12 -25
-45 -25 -36 0 -44 -7 -40 -32 0 -5 -2 -8 -6 -9 -5 0 -23 -2 -42 -4 -33 -4 -55
-21 -45 -36 2 -4 -6 -9 -18 -11 -13 -2 -24 -12 -28 -26 -3 -13 -8 -23 -12 -23
-24 2 -28 -1 -28 -18 0 -13 -8 -21 -22 -23 -15 -2 -24 -11 -26 -25 -3 -18 -11
-22 -45 -25 -33 -2 -42 -7 -41 -20 1 -12 -5 -18 -17 -18 -11 0 -23 -8 -26 -17
-9 -25 -23 -33 -60 -33 -25 0 -32 -5 -35 -22 -2 -15 -9 -22 -21 -22 -12 1 -17
-5 -17 -21 0 -17 -7 -25 -22 -27 -13 -2 -24 -12 -28 -26 -3 -13 -8 -23 -12
-23 -24 2 -28 -1 -28 -19 0 -13 -7 -20 -20 -20 -13 0 -22 -9 -26 -25 -4 -16
-13 -25 -25 -25 -12 0 -19 -7 -19 -20 0 -13 -7 -20 -20 -20 -11 0 -21 -4 -21
-10 -1 -5 -2 -16 -3 -22 0 -7 -11 -14 -24 -16 -14 -2 -22 -10 -22 -23 0 -14
-7 -19 -29 -19 -42 0 -61 -10 -61 -31 0 -12 -7 -19 -20 -19 -15 0 -20 -7 -20
-29 0 -42 -10 -61 -31 -61 -13 0 -19 -7 -19 -21 0 -12 -8 -23 -20 -26 -11 -3
-20 -14 -20 -24 0 -12 -7 -19 -20 -19 -13 0 -22 -9 -26 -25 -4 -16 -13 -25
-25 -25 -16 0 -19 -7 -19 -40 0 -34 -4 -42 -25 -50 -14 -5 -25 -13 -24 -17 4
-23 -3 -34 -18 -31 -15 2 -19 -5 -21 -39 -3 -35 -7 -43 -23 -43 -17 0 -24 -16
-20 -42 0 -5 -10 -8 -24 -8 -20 0 -25 -5 -25 -25 0 -18 -5 -25 -20 -25 -13 0
-20 -7 -20 -20 0 -13 -7 -20 -20 -20 -11 0 -20 -3 -21 -7 -1 -5 -2 -20 -3 -34
-4 -42 -15 -62 -31 -55 -11 4 -15 -1 -15 -19 0 -17 -6 -25 -22 -27 -23 -3 -25
-6 -27 -58 -1 -23 -6 -30 -21 -30 -15 0 -20 -7 -20 -25 0 -18 -5 -25 -20 -25
-11 0 -21 -7 -21 -15 -1 -8 -3 -19 -4 -25 -1 -5 -3 -19 -4 -30 -1 -13 -8 -20
-21 -20 -17 0 -20 -7 -20 -45 0 -37 -3 -45 -19 -45 -23 0 -29 -14 -25 -57 2
-29 -1 -33 -22 -33 -22 0 -24 -4 -24 -45 0 -38 -3 -45 -20 -45 -17 0 -20 -7
-20 -45 0 -39 -3 -45 -25 -51 -16 -4 -25 -13 -24 -23 3 -34 -1 -71 -8 -70 -27
4 -33 -4 -33 -46 0 -42 -2 -45 -26 -45 -22 0 -25 -4 -24 -27 4 -53 0 -63 -20
-63 -18 0 -20 -7 -20 -71 0 -38 -4 -68 -8 -65 -21 13 -35 -15 -37 -76 -3 -96
-4 -96 -25 -103 -16 -5 -20 -15 -20 -45 0 -33 -4 -41 -23 -45 -22 -6 -23 -9
-22 -121 1 -112 1 -114 -21 -114 -22 0 -23 -3 -23 -87 1 -182 1 -181 -24 -185
-20 -3 -22 -8 -22 -67 0 -56 -3 -65 -21 -72 -20 -7 -21 -14 -22 -151 -1 -230
1 -218 -22 -218 -19 0 -20 -7 -20 -90 0 -83 1 -90 20 -90 22 0 22 4 22 -200 0
-177 0 -171 -19 -168 -17 3 -18 -15 -18 -252 0 -202 3 -254 13 -252 18 3 21
-12 24 -128 3 -94 5 -105 21 -102 20 3 19 9 21 -143 1 -114 2 -120 24 -130 19
-9 22 -17 22 -71 0 -53 3 -62 20 -67 20 -5 22 -12 22 -94 0 -39 2 -43 24 -43
24 0 24 -1 24 -91 0 -82 2 -91 20 -96 17 -5 20 -14 20 -68 0 -58 2 -64 22 -67
19 -2 23 -10 25 -38 0 -19 2 -40 2 -46 1 -7 9 -11 19 -10 13 1 18 -8 20 -41 3
-35 7 -44 26 -49 20 -5 22 -11 21 -52 -2 -64 4 -82 26 -82 16 0 19 -8 19 -45
0 -38 3 -45 20 -45 14 0 20 -7 20 -21 0 -12 8 -23 20 -26 20 -5 23 -15 23 -90
0 -35 3 -42 23 -47 19 -5 23 -14 26 -48 2 -33 8 -43 23 -48 17 -4 21 -13 21
-45 0 -34 3 -40 22 -43 19 -3 22 -10 22 -48 0 -36 3 -44 19 -44 12 0 21 -9 25
-25 4 -14 13 -25 20 -25 14 0 26 -29 26 -67 0 -16 6 -23 20 -23 13 0 20 -7 20
-20 0 -13 7 -20 20 -20 13 0 22 -9 26 -25 4 -16 13 -25 25 -25 14 0 19 -7 19
-25 0 -18 5 -25 20 -25 19 0 23 -10 23 -63 0 -10 10 -20 23 -23 15 -4 24 -13
24 -26 0 -11 8 -22 20 -25 11 -3 20 -14 20 -24 0 -12 7 -19 20 -19 11 0 21 -6
22 -12 0 -7 2 -17 3 -23 2 -5 3 -20 4 -32 1 -16 7 -23 21 -23 13 0 20 -7 20
-19 0 -11 9 -21 23 -25 18 -4 24 -13 24 -33 1 -56 3 -63 23 -63 13 0 20 -7 20
-20 0 -13 7 -20 19 -20 12 0 21 -9 25 -25 5 -21 12 -25 46 -25 34 0 40 -3 40
-21 0 -12 8 -23 20 -26 14 -4 22 -17 26 -44 4 -25 13 -40 25 -44 11 -4 19 -15
19 -26 0 -16 7 -19 45 -19 39 0 45 -3 45 -20 0 -13 10 -24 26 -30 14 -6 23
-14 19 -19 -7 -12 12 -24 44 -27 14 -1 29 -2 34 -3 4 -1 7 -10 7 -21 0 -13 7
-20 20 -20 11 0 21 -4 21 -10 1 -5 3 -19 4 -30 1 -11 3 -27 4 -35 0 -8 10 -15
20 -15 13 0 21 -8 23 -23 2 -18 10 -23 46 -25 34 -3 42 -7 42 -23 0 -12 7 -19
19 -19 12 0 21 -9 25 -25 5 -21 12 -25 45 -25 33 0 40 -4 43 -23 2 -14 11 -23
26 -25 14 -2 22 -10 22 -23 0 -12 7 -19 19 -19 13 0 21 -8 23 -23 2 -15 10
-22 26 -23 12 -1 31 -2 42 -3 13 -1 20 -8 20 -21 0 -13 7 -20 19 -20 12 0 21
-9 25 -25 6 -22 12 -25 39 -23 40 2 58 -8 50 -27 -3 -11 2 -15 18 -16 13 -1
29 -2 34 -4 6 -1 16 -3 23 -3 6 -1 12 -11 12 -21 0 -13 8 -21 23 -23 12 -2 23
-9 23 -15 1 -7 2 -17 3 -23 0 -5 18 -10 40 -10 30 0 40 -4 44 -20 4 -17 14
-20 61 -20 51 0 57 -2 66 -25 6 -17 16 -25 27 -23 12 2 19 -4 21 -19 2 -13 11
-24 20 -24 9 -1 22 -2 27 -4 6 -1 18 -3 28 -3 10 -1 17 -10 17 -22 0 -17 7
-20 40 -20 32 0 42 -4 49 -22 7 -19 16 -21 82 -23 81 -2 103 -9 95 -31 -4 -11
5 -14 39 -14 37 0 45 -3 45 -19 0 -21 19 -31 61 -31 22 0 29 -5 29 -20 0 -20
26 -25 107 -22 15 1 23 -6 25 -21 3 -23 7 -24 91 -26 26 -1 46 -4 46 -8 -4
-27 3 -40 24 -40 94 -1 105 -3 110 -23 5 -18 15 -20 153 -22 143 -3 149 -4
152 -24 3 -20 8 -21 130 -21 121 1 127 0 137 -21 10 -22 10 -22 275 -20 227 3
265 5 265 18 0 8 8 16 18 18 12 2 17 -3 17 -17 0 -25 2 -25 269 -23 169 2 201
7 185 34 -3 4 105 8 240 8 l246 0 0 26 0 26 130 -4 c127 -3 129 -3 135 20 6
24 8 24 120 23 82 -1 105 5 105 27 0 15 14 18 102 20 112 4 118 5 118 30 0 14
8 17 45 14 25 -2 45 0 44 4 -5 31 3 41 36 42 44 2 58 10 51 28 -4 11 7 14 47
15 79 2 81 2 87 25 4 17 14 21 60 23 63 3 70 6 70 30 0 13 8 17 33 16 45 -1
57 4 57 26 0 19 18 24 63 20 10 -2 21 8 27 23 6 16 17 26 29 26 13 0 18 5 15
14 -7 19 15 31 53 27 24 -2 33 2 33 13 0 15 31 38 47 35 4 -1 27 -1 51 0 35 1
42 4 42 21 0 16 7 20 33 21 17 1 35 1 38 1 4 -1 10 10 13 23 4 16 14 25 25 25
13 0 21 8 23 22 2 14 13 25 28 29 14 4 21 7 16 8 -24 3 21 31 50 31 27 0 34 4
34 20 0 11 6 21 13 21 6 1 17 2 22 4 6 1 20 3 33 3 15 2 22 8 22 22 0 13 7 20
20 20 13 0 22 9 26 25 4 16 13 25 25 25 12 0 19 7 19 20 0 13 7 20 20 20 11 0
20 4 20 9 0 19 32 41 61 41 22 0 29 5 29 19 0 12 9 21 25 25 16 4 25 13 25 26
0 13 7 20 19 20 13 0 21 8 23 23 2 17 10 22 36 23 51 2 52 3 52 24 0 13 7 20
19 20 12 0 21 9 25 25 4 16 13 25 26 25 13 0 20 7 20 19 0 11 9 22 19 26 11 3
23 15 26 26 4 10 15 19 26 19 13 0 19 7 19 21 0 12 8 23 20 26 11 3 20 14 20
24 0 14 7 19 25 19 20 0 25 5 25 25 0 14 3 24 8 24 22 -4 32 3 32 21 0 13 7
20 20 20 13 0 22 9 26 25 4 16 13 25 25 25 12 0 19 7 19 19 0 10 9 21 20 24
12 3 20 14 20 25 0 14 8 22 23 24 12 2 21 9 19 16 -1 7 9 17 23 22 15 6 25 17
25 29 0 13 8 21 23 23 12 2 22 8 22 15 0 15 13 28 28 28 7 0 13 10 15 22 2 15
10 23 23 23 10 0 20 5 20 10 1 6 3 19 4 30 1 11 3 27 4 35 0 8 10 15 21 15 15
0 20 7 20 25 0 18 5 25 20 25 11 0 20 6 20 14 0 7 11 21 25 30 19 12 25 25 25
51 0 28 4 35 20 35 18 0 22 8 19 38 0 4 10 9 23 12 24 6 25 8 27 60 1 23 6 30
21 30 21 0 22 2 24 51 1 23 7 34 24 40 18 7 22 16 22 49 0 33 3 40 20 40 15 0
20 7 20 25 0 18 5 25 19 25 15 0 20 10 25 45 6 36 11 45 27 45 16 0 19 7 19
44 0 39 3 45 23 48 15 2 22 10 24 28 0 14 1 33 2 43 1 10 9 17 21 17 17 0 20
7 20 45 0 33 4 45 15 45 20 0 33 29 29 63 -2 22 2 30 22 38 18 6 25 16 24 32
-1 12 -2 39 -1 60 1 30 5 37 21 37 13 0 20 7 21 20 1 11 2 30 3 43 0 12 11 26
24 32 18 8 22 17 21 55 -2 73 0 80 21 80 18 0 20 7 20 86 0 77 2 86 20 91 23
6 21 3 25 63 1 25 3 52 4 61 0 9 10 19 21 22 17 4 20 14 20 70 0 60 2 66 22
69 22 3 23 7 23 112 0 102 1 109 22 117 20 7 21 13 22 156 1 81 -2 153 -7 159
-4 6 -15 13 -25 17 -13 5 -16 14 -13 34 2 16 5 31 5 36 1 4 10 7 21 7 13 0 20
7 20 19 0 10 8 21 19 24 26 6 27 22 26 370 -2 335 0 327 -57 327 -21 0 -28 5
-28 19 0 10 9 21 20 24 11 3 20 12 20 21 0 9 5 17 10 17 6 1 16 2 23 3 9 1 12
40 12 161 0 158 0 160 -22 163 -23 3 -23 5 -23 159 0 146 -1 155 -20 160 -14
4 -20 14 -21 37 -1 17 -2 44 -3 61 -1 18 -8 33 -21 40 -17 8 -21 21 -22 65 -3
124 -2 120 -23 120 -19 0 -20 7 -20 89 0 85 -1 90 -22 93 -19 2 -23 10 -24 38
-2 57 -3 60 -24 60 -18 0 -20 7 -20 65 0 58 -2 65 -20 65 -20 0 -24 12 -20 58
1 13 -6 25 -17 29 -29 10 -33 23 -33 105 0 68 -2 77 -20 83 -17 5 -20 15 -20
71 0 57 -2 64 -20 64 -11 0 -21 5 -21 10 -1 6 -3 19 -4 30 -1 11 -3 26 -4 34
0 7 -10 16 -21 19 -11 3 -20 14 -20 25 0 11 -9 22 -20 25 -19 5 -23 17 -23 69
0 9 -10 19 -23 22 -20 5 -24 13 -24 46 0 33 -3 40 -20 40 -17 0 -20 7 -20 39
0 22 -6 44 -15 51 -8 7 -15 9 -16 4 -1 -21 -18 34 -18 63 -1 18 -4 32 -8 32
-25 -4 -32 5 -35 44 -2 34 -7 43 -24 45 -19 3 -21 8 -17 42 5 36 3 40 -21 46
-19 4 -26 13 -26 30 0 17 -6 24 -19 24 -16 0 -20 8 -23 43 -2 35 -7 43 -25 45
-15 2 -23 10 -23 24 0 11 -8 22 -20 25 -11 3 -20 14 -20 24 0 14 -7 19 -26 19
-19 0 -25 4 -20 15 3 9 -3 19 -14 25 -11 6 -21 7 -22 3 0 -4 -4 15 -7 42 -4
33 -10 49 -19 47 -7 -1 -18 9 -24 23 -6 14 -19 25 -30 25 -12 0 -18 7 -18 21
0 12 -8 23 -20 26 -11 3 -20 13 -20 23 0 11 -10 20 -25 24 -14 4 -23 11 -20
15 7 12 -24 43 -35 36 -5 -3 -10 14 -12 37 -2 36 -7 44 -25 46 -15 2 -23 10
-23 24 0 11 -8 22 -19 25 -11 3 -21 13 -24 24 -3 11 -14 19 -26 19 -12 0 -20
3 -20 8 4 26 -3 42 -21 42 -13 0 -20 7 -20 19 0 12 -9 21 -25 25 -14 4 -24 10
-24 14 4 22 -3 32 -21 32 -13 0 -20 7 -20 20 0 11 -7 20 -15 20 -9 0 -21 11
-27 25 -10 23 -41 32 -80 26 -5 0 -8 10 -8 24 0 18 -5 25 -20 25 -13 0 -20 7
-20 18 0 11 -11 24 -25 30 -14 6 -25 18 -25 27 0 8 -9 15 -19 15 -11 0 -22 9
-26 19 -3 11 -15 23 -26 26 -10 4 -19 15 -19 26 0 15 -7 19 -38 19 -32 0 -41
5 -50 25 -7 14 -18 25 -24 24 -36 -4 -56 3 -61 21 -3 11 -14 21 -26 21 -12 1
-25 3 -31 4 -5 1 -14 3 -20 4 -5 0 -10 8 -10 17 0 9 -9 18 -21 21 -11 3 -25
16 -30 29 -4 13 -15 24 -24 24 -8 0 -15 9 -15 19 0 13 -8 21 -22 23 -13 2 -23
10 -23 18 0 19 -22 28 -57 24 -26 -3 -34 7 -29 39 0 4 -19 7 -44 7 -39 0 -45
3 -51 25 -3 14 -11 25 -18 24 -43 -5 -66 2 -66 21 0 13 -7 20 -20 21 -11 1
-30 2 -42 3 -16 1 -24 8 -26 24 -3 19 -9 22 -48 22 -37 0 -44 3 -44 20 0 11
-6 21 -12 21 -7 1 -20 3 -28 4 -8 1 -23 3 -32 4 -11 0 -18 9 -18 21 0 13 -7
20 -20 20 -15 0 -20 7 -20 26 0 18 -5 25 -17 23 -52 -5 -73 1 -73 21 0 18 -7
20 -71 20 -39 0 -68 4 -65 9 4 5 3 16 0 25 -5 12 -21 16 -69 16 -58 0 -64 2
-67 23 -3 20 -8 22 -65 22 -59 -1 -63 1 -63 22 0 22 -3 23 -90 23 -50 0 -89 3
-89 8 6 34 -2 41 -40 37 -35 -4 -40 -1 -43 18 -3 21 -8 22 -135 25 l-133 3 0
25 c0 24 -2 25 -57 24 -114 -3 -123 -2 -123 20 0 20 -7 20 -352 21 -194 1
-402 2 -463 3 -107 1 -110 0 -113 -22 -3 -20 -9 -22 -42 -20 -30 1 -40 7 -44
22 -5 20 -12 21 -202 21 -193 0 -197 0 -212 -22z m978 -420 l0 -23 245 0 c238
0 245 -1 245 -20 0 -12 7 -20 18 -21 9 -1 35 -3 57 -4 22 -2 43 -3 48 -4 4 -1
7 -10 7 -21 0 -17 7 -20 44 -20 39 0 45 -3 48 -22 3 -26 -2 -25 123 -27 88 -1
95 -2 95 -21 0 -17 7 -20 44 -20 39 0 45 -3 48 -22 3 -21 10 -24 68 -28 54 -4
65 -8 70 -25 4 -18 13 -21 65 -20 55 0 60 -2 63 -22 3 -21 9 -23 68 -23 62 0
64 -1 64 -25 0 -24 3 -25 45 -22 41 3 45 1 45 -20 0 -22 4 -23 64 -23 59 0 65
-2 68 -22 2 -13 12 -24 26 -28 13 -3 23 -8 23 -12 -3 -33 0 -36 39 -32 22 2
41 -1 41 -6 1 -6 2 -16 3 -22 0 -8 20 -15 46 -18 37 -4 45 -9 45 -25 0 -11 6
-21 13 -21 6 -1 17 -2 22 -3 6 0 10 -10 10 -21 0 -13 7 -20 20 -20 13 0 20 -7
20 -19 0 -19 25 -31 68 -31 15 0 22 -6 22 -20 0 -15 7 -20 30 -21 52 -2 55 -4
58 -26 2 -15 10 -23 22 -23 10 0 22 -9 25 -20 3 -11 15 -21 26 -21 10 -1 24
-3 29 -4 6 -1 15 -3 20 -4 6 0 10 -10 10 -21 0 -13 7 -20 20 -20 13 0 24 -10
30 -25 5 -14 16 -25 25 -25 8 0 15 -9 15 -20 0 -17 7 -20 45 -20 41 0 45 -2
45 -25 0 -18 5 -25 20 -25 11 0 21 -4 21 -10 1 -5 2 -16 3 -22 0 -7 7 -14 14
-14 6 -1 17 -2 22 -3 6 0 10 -10 10 -21 0 -13 7 -20 19 -20 13 0 21 -8 23 -22
2 -15 11 -24 26 -26 14 -2 22 -10 22 -23 0 -12 7 -19 20 -19 15 0 20 -7 20
-25 0 -20 5 -25 26 -25 19 0 25 -4 20 -15 -5 -15 26 -39 38 -28 3 3 6 -6 6
-20 0 -20 5 -27 19 -27 11 0 22 -9 26 -19 3 -11 15 -23 26 -26 10 -4 19 -15
19 -26 0 -12 7 -19 20 -19 11 0 21 -4 21 -10 1 -5 2 -16 3 -22 0 -7 11 -14 23
-16 14 -2 20 -8 17 -17 -6 -14 29 -39 40 -28 3 3 6 -4 6 -16 0 -14 7 -25 20
-28 18 -5 25 -21 21 -47 -4 -21 12 -46 30 -46 13 0 19 -7 19 -21 0 -12 8 -23
20 -26 16 -4 20 -14 20 -44 0 -33 4 -40 25 -45 15 -4 25 -13 25 -24 0 -10 9
-20 20 -23 12 -3 20 -14 20 -26 0 -14 6 -21 19 -21 19 0 31 -25 31 -67 0 -16
6 -23 19 -23 13 0 21 -8 23 -22 2 -14 10 -23 20 -22 9 1 19 -8 22 -21 3 -12
15 -25 26 -28 11 -3 20 -9 19 -14 -6 -34 3 -73 16 -73 9 0 20 -11 25 -25 5
-14 16 -25 24 -25 10 0 17 -15 22 -45 5 -35 10 -45 25 -45 17 0 19 -8 19 -65
0 -59 2 -67 23 -74 18 -7 22 -16 22 -47 0 -33 4 -40 23 -42 19 -3 22 -9 22
-47 0 -34 4 -44 20 -48 21 -5 22 -9 23 -124 0 -49 2 -53 24 -53 22 0 23 -3 23
-70 0 -63 2 -70 20 -70 17 0 20 -7 20 -45 0 -38 3 -45 20 -45 12 0 21 -7 21
-17 1 -10 3 -31 4 -48 2 -16 3 -40 4 -51 1 -13 9 -24 21 -27 17 -4 20 -14 20
-66 0 -50 3 -63 18 -68 26 -10 27 -14 27 -102 0 -76 1 -81 21 -81 19 0 21 -5
19 -77 -2 -92 1 -103 26 -103 22 0 21 9 20 -247 0 -152 1 -163 18 -163 10 0
21 -8 23 -17 2 -10 3 -178 2 -373 -2 -553 -1 -517 -24 -523 -19 -5 -20 -14
-20 -142 0 -75 -4 -134 -8 -131 -4 2 -14 1 -22 -4 -11 -7 -15 -34 -16 -107 -2
-125 -1 -120 -23 -126 -17 -4 -20 -15 -23 -68 -3 -53 -6 -64 -23 -69 -18 -4
-20 -13 -20 -90 0 -77 -2 -86 -20 -90 -17 -5 -20 -15 -22 -80 -1 -41 -2 -81
-2 -87 -1 -7 -10 -13 -21 -13 -17 0 -20 -7 -20 -45 0 -38 -3 -45 -20 -45 -11
0 -21 -3 -21 -7 -2 -15 -7 -99 -8 -135 -1 -31 -5 -38 -21 -38 -16 0 -20 -7
-21 -35 -2 -57 -4 -60 -22 -57 -9 2 -18 -2 -18 -8 -1 -5 -2 -16 -3 -22 0 -7
-11 -14 -23 -16 -20 -3 -23 -9 -23 -48 0 -37 -3 -44 -20 -44 -17 0 -20 -7 -20
-44 0 -39 -3 -45 -22 -48 -15 -2 -24 -11 -26 -25 -2 -15 -10 -23 -23 -23 -13
0 -19 -7 -20 -22 -1 -13 -2 -27 -4 -33 -1 -5 -3 -16 -3 -22 -1 -7 -11 -13 -22
-13 -17 0 -20 -7 -20 -45 0 -38 -3 -45 -20 -45 -15 0 -20 -7 -20 -25 0 -20 -5
-25 -24 -25 -21 0 -23 -4 -24 -47 0 -77 -1 -80 -21 -86 -15 -4 -20 -15 -23
-48 -2 -34 -7 -44 -20 -43 -10 1 -19 -8 -22 -22 -4 -15 -14 -24 -26 -24 -13 0
-20 -7 -20 -18 0 -11 -11 -24 -25 -30 -14 -6 -25 -18 -25 -27 0 -8 -6 -15 -13
-15 -8 0 -19 -11 -25 -25 -6 -14 -18 -25 -27 -25 -8 0 -16 -7 -16 -15 -1 -8
-3 -19 -4 -25 -1 -5 -3 -18 -4 -29 0 -10 -10 -21 -21 -24 -12 -3 -20 -14 -20
-27 0 -14 -5 -20 -17 -18 -12 2 -19 -4 -21 -19 -2 -14 -10 -23 -22 -23 -10 0
-20 -9 -23 -21 -3 -11 -15 -23 -26 -26 -12 -3 -21 -14 -21 -24 0 -12 -7 -19
-20 -19 -11 0 -21 -4 -21 -10 -1 -5 -2 -16 -3 -22 0 -7 -11 -14 -23 -16 -15
-2 -23 -10 -23 -23 0 -12 -7 -19 -19 -19 -13 0 -21 -8 -23 -22 -2 -15 -11 -24
-25 -26 -14 -2 -23 -11 -25 -25 -2 -14 -10 -21 -21 -21 -12 1 -17 -5 -17 -21
0 -17 -7 -25 -22 -27 -15 -2 -24 -11 -26 -26 -2 -15 -9 -22 -20 -20 -11 2 -18
-5 -20 -19 -2 -15 -10 -23 -23 -23 -12 0 -21 -9 -25 -25 -4 -15 -13 -25 -24
-25 -12 0 -20 -9 -22 -22 -2 -19 -9 -22 -43 -23 -34 0 -40 -4 -43 -23 -2 -14
-10 -22 -23 -22 -12 0 -19 -7 -19 -19 0 -10 -9 -21 -21 -24 -11 -3 -23 -15
-26 -26 -4 -17 -13 -21 -44 -21 -22 0 -40 -4 -40 -10 -1 -5 -3 -14 -4 -20 -1
-5 -3 -21 -4 -35 -1 -21 -6 -25 -33 -25 -33 0 -60 -11 -59 -24 3 -22 -3 -26
-39 -26 -33 0 -40 -3 -40 -20 0 -11 -4 -21 -10 -21 -5 -1 -16 -2 -22 -3 -7 0
-14 -11 -16 -24 -3 -19 -9 -22 -48 -22 -37 0 -44 -3 -44 -20 0 -15 -7 -20 -27
-21 -54 -2 -58 -4 -61 -27 -3 -18 -10 -22 -43 -22 -32 0 -40 -4 -45 -24 -5
-20 -11 -23 -39 -21 -38 2 -50 -4 -50 -25 0 -10 -13 -16 -42 -18 -34 -3 -42
-7 -45 -25 -3 -22 -6 -24 -58 -26 -23 -1 -30 -6 -30 -21 0 -21 -6 -23 -57 -20
-26 1 -32 -3 -35 -22 -3 -20 -9 -23 -58 -24 -73 -2 -70 -1 -70 -29 0 -18 5
-25 20 -25 17 0 20 -7 20 -43 0 -42 -1 -44 -27 -41 -16 1 -33 2 -40 3 -7 1
-13 20 -15 43 -3 42 -4 42 -40 43 -37 1 -61 -6 -59 -19 3 -22 -5 -26 -60 -26
-52 0 -62 -3 -66 -20 -3 -11 -13 -20 -22 -21 -9 0 -36 -2 -61 -2 -38 -2 -45
-5 -48 -24 -4 -25 -20 -27 -234 -24 -68 0 -78 -2 -83 -19 -4 -11 -14 -21 -23
-22 -9 0 -21 -2 -27 -3 -5 -2 -16 -3 -22 -4 -7 0 -13 -10 -13 -21 0 -13 -7
-20 -20 -20 -11 0 -21 -6 -21 -12 -2 -16 -7 -104 -8 -140 -1 -33 -26 -38 -34
-8 -3 12 -14 20 -26 20 -14 0 -21 6 -21 19 0 11 -9 22 -19 26 -11 3 -23 15
-26 26 -6 17 -40 26 -77 20 -5 0 -8 11 -8 25 l0 26 -282 -5 c-156 -3 -292 -7
-303 -9 -11 -1 -25 -12 -30 -23 -9 -17 -19 -19 -70 -17 -33 1 -69 4 -80 7 -11
2 -25 4 -31 4 -7 1 -14 10 -17 22 -7 25 -31 20 -35 -7 -3 -18 -11 -20 -87 -20
-82 1 -85 1 -85 23 0 20 -5 23 -44 23 -38 0 -45 3 -48 22 -3 23 -10 24 -225
28 -26 0 -33 4 -33 20 0 17 -8 19 -67 22 -60 3 -68 5 -68 23 0 18 -7 20 -81
21 -85 1 -104 6 -104 30 0 8 -9 14 -20 14 -18 0 -25 -10 -21 -32 0 -5 -17 -8
-40 -8 -32 0 -42 4 -46 19 -3 14 -17 21 -49 26 -34 5 -44 10 -42 23 2 13 -6
18 -40 20 -34 3 -45 8 -52 26 -7 20 -16 23 -57 24 -113 1 -113 1 -113 22 0 13
-7 20 -20 20 -11 0 -24 8 -27 18 -10 26 -23 32 -80 32 -46 0 -53 3 -53 20 0
20 -11 23 -72 23 -12 0 -18 7 -18 23 0 13 -3 23 -7 23 -5 -1 -32 -1 -61 0 -45
1 -55 4 -59 21 -6 22 -3 22 -93 25 -92 3 -89 3 -88 28 2 54 -2 67 -22 67 -13
0 -20 7 -20 20 0 15 -7 20 -30 21 -52 2 -55 4 -58 27 -3 16 -10 22 -28 22 -14
0 -23 4 -20 8 12 20 -12 33 -75 41 -4 1 -9 10 -12 21 -4 16 -14 20 -45 20 -34
0 -41 3 -44 22 -2 15 -11 24 -25 26 -15 2 -23 10 -23 23 0 16 -7 19 -40 19
-34 0 -41 4 -46 25 -3 13 -9 24 -13 23 -21 -2 -31 4 -31 22 0 13 -7 20 -19 20
-13 0 -21 8 -23 22 -2 15 -11 24 -26 26 -16 3 -22 10 -22 28 0 13 -3 23 -7 23
-23 -4 -33 3 -33 21 0 13 -7 20 -20 20 -12 0 -24 9 -29 23 -5 12 -17 23 -30
23 -11 1 -28 2 -36 3 -8 0 -15 10 -15 21 0 15 -7 20 -25 20 -20 0 -25 5 -25
25 0 14 -3 24 -7 24 -23 -4 -33 3 -33 21 0 13 -9 22 -25 26 -13 3 -24 9 -23
13 0 3 0 21 -1 39 -1 25 -5 32 -20 32 -13 0 -21 8 -23 22 -2 15 -11 24 -26 26
-12 2 -20 7 -17 12 9 15 -26 40 -56 40 -29 0 -34 10 -32 68 1 7 -10 15 -23 18
-15 4 -24 13 -24 25 0 10 -7 19 -15 19 -9 0 -20 11 -25 25 -6 15 -17 25 -30
25 -13 0 -20 7 -20 19 0 11 -9 22 -19 26 -10 3 -21 15 -24 25 -3 12 -14 20
-26 20 -15 0 -21 6 -21 21 0 12 -8 23 -20 26 -16 4 -20 14 -20 45 0 31 -4 41
-19 45 -11 3 -21 15 -23 27 -2 13 -11 22 -25 24 -15 2 -23 10 -23 23 0 12 -7
19 -20 19 -17 0 -20 7 -20 45 0 25 -4 46 -10 46 -5 1 -16 2 -22 3 -7 0 -14 16
-14 34 -2 56 -4 60 -21 58 -15 -1 -19 8 -21 47 -2 26 -6 45 -11 43 -14 -9 -33
12 -36 42 -3 36 -12 52 -30 52 -7 0 -15 10 -17 23 -2 12 -9 22 -17 22 -16 0
-30 31 -25 59 1 11 -5 20 -17 23 -10 3 -20 9 -20 14 -5 33 -7 54 -8 89 -1 33
-5 40 -21 40 -17 0 -20 7 -20 43 0 34 -4 44 -22 52 -19 8 -22 17 -20 46 3 32
0 37 -22 43 -25 6 -26 10 -26 71 0 58 -2 65 -20 65 -14 0 -20 7 -21 25 -1 14
-3 30 -4 35 -1 6 -3 14 -4 19 0 5 -10 11 -21 14 -16 4 -20 14 -20 52 0 42 -2
47 -20 42 -18 -5 -20 0 -21 59 -1 56 -3 78 -8 113 0 5 -9 11 -20 14 -12 3 -18
14 -19 33 0 99 -2 104 -22 104 -19 0 -20 7 -20 160 0 153 -1 160 -20 160 -22
0 -21 -10 -24 190 -1 103 -3 115 -21 125 -19 9 -20 20 -21 162 0 151 0 153 22
153 l22 0 0 348 c0 191 1 355 1 365 1 10 9 17 21 17 19 0 20 7 20 94 0 90 1
95 22 98 21 3 23 9 24 68 2 107 2 110 24 110 19 0 20 7 20 89 0 85 1 90 23 93
21 3 22 8 24 83 1 44 2 83 2 88 1 4 10 7 21 7 17 0 20 7 20 44 0 37 3 45 22
49 21 6 23 12 22 67 -1 48 3 63 15 68 23 8 31 23 31 60 0 25 4 32 20 32 17 0
20 7 20 45 0 25 5 46 10 46 6 1 16 2 23 3 7 1 13 20 15 49 3 38 6 47 20 45 14
-2 18 6 20 45 3 43 5 47 28 47 21 0 25 4 23 28 -4 49 0 62 21 62 17 0 20 7 20
44 0 39 3 45 23 48 22 3 24 7 26 61 1 20 6 27 21 27 15 0 20 7 20 25 0 18 5
25 20 25 14 0 20 7 21 25 1 14 3 30 4 35 1 6 3 15 4 20 0 6 10 10 21 10 17 0
20 7 20 40 0 34 4 42 25 50 16 6 23 15 19 25 -4 10 3 18 19 24 20 8 26 18 29
48 2 26 8 38 18 38 8 0 16 10 18 22 2 14 11 23 25 25 14 2 22 10 22 23 0 13 8
21 23 23 19 3 22 9 22 48 0 37 3 44 20 44 11 0 20 7 20 15 0 18 31 35 64 35
19 0 26 5 26 19 0 13 8 21 23 23 14 2 23 11 25 26 2 14 10 22 23 22 12 0 19 7
19 20 0 11 7 20 15 20 19 0 35 31 35 68 0 22 4 29 17 28 11 0 19 7 21 21 3 18
11 22 45 25 42 3 42 3 45 46 3 37 6 42 28 42 13 0 23 3 23 8 -4 26 3 42 21 42
13 0 20 7 20 20 0 13 7 20 19 20 12 0 21 9 25 25 4 16 13 25 26 25 13 0 20 7
20 20 0 13 7 20 20 20 15 0 20 7 20 25 0 19 5 25 21 25 12 0 23 8 26 20 5 21
7 21 58 24 16 0 31 7 31 14 1 6 2 17 3 22 0 6 19 10 41 10 22 0 41 5 41 10 1
6 2 16 3 23 0 6 7 13 14 13 6 1 17 2 22 3 6 0 10 10 10 21 0 13 7 20 19 20 13
0 21 8 23 23 2 18 10 23 45 25 34 3 42 7 45 25 2 14 10 22 23 22 13 0 21 8 23
23 2 14 10 22 23 22 12 0 19 7 19 20 0 11 7 20 15 20 9 0 21 11 27 25 11 24
15 25 94 25 78 0 83 1 86 23 2 17 10 22 33 23 52 2 55 4 55 24 0 15 7 20 30
21 52 2 55 4 58 27 2 14 10 22 23 22 10 0 19 5 19 10 0 6 0 13 0 18 0 4 30 9
67 12 61 4 68 7 71 28 3 20 9 22 68 22 57 0 64 2 64 19 0 16 8 20 43 23 35 2
43 7 45 26 3 19 9 22 47 22 34 0 43 3 39 14 -8 21 11 28 85 31 36 2 73 3 82 4
10 1 16 9 15 19 -1 14 9 17 67 20 62 3 67 4 67 26 0 22 4 23 63 22 57 -1 62 1
65 22 3 21 6 22 132 22 126 0 128 0 134 24 4 16 13 23 28 23 140 1 150 3 155
23 5 18 14 20 77 21 221 2 231 3 234 24 3 20 10 20 327 20 l325 0 0 -22z"/>
<path d="M4386 9079 c-8 -12 -19 -18 -25 -15 -5 4 -12 2 -16 -4 -4 -6 -11 -8
-16 -5 -5 4 -12 0 -15 -9 -4 -10 -12 -12 -27 -7 -12 5 -29 5 -37 0 -28 -14
-55 -23 -74 -23 -11 -1 -21 -7 -24 -15 -3 -10 1 -12 17 -8 17 4 20 3 11 -8 -6
-7 -34 -16 -62 -19 -57 -8 -85 -20 -109 -48 -9 -10 -19 -18 -23 -18 -4 0 -22
-11 -39 -24 -32 -24 -99 -44 -213 -65 -47 -9 -71 -8 -105 2 -43 13 -165 15
-223 3 -53 -10 -55 -43 -7 -103 48 -60 118 -68 213 -24 68 31 217 30 269 -1
13 -8 42 -16 64 -17 22 -2 46 -7 52 -13 7 -6 25 -8 40 -5 15 3 44 -2 65 -10
21 -8 45 -12 54 -9 18 7 45 -21 37 -40 -2 -6 -15 -9 -29 -6 -14 2 -24 0 -24
-7 0 -6 -7 -11 -15 -11 -8 0 -21 -11 -30 -23 -8 -13 -26 -30 -40 -37 -14 -7
-27 -21 -31 -32 -3 -10 -10 -18 -15 -18 -5 0 -22 -14 -37 -30 -23 -27 -35 -31
-87 -34 -105 -5 -144 -35 -129 -99 9 -41 6 -101 -6 -105 -6 -2 -10 -9 -10 -16
0 -7 -12 -28 -26 -47 -64 -85 -124 -172 -124 -180 0 -5 -18 -35 -40 -66 -22
-32 -40 -62 -40 -66 0 -5 -11 -23 -25 -41 -13 -18 -34 -53 -45 -79 -11 -25
-25 -49 -30 -52 -5 -3 -18 -30 -29 -60 -11 -30 -32 -72 -45 -93 -13 -20 -29
-55 -36 -77 -7 -22 -18 -47 -25 -55 -13 -16 -88 -240 -131 -390 -14 -52 -29
-99 -32 -105 -4 -5 -7 -14 -8 -20 -1 -5 -8 -38 -15 -72 -12 -57 -11 -64 6 -83
10 -11 26 -20 35 -20 9 0 25 -19 38 -47 13 -27 36 -70 52 -98 44 -74 60 -111
60 -141 0 -17 6 -28 20 -31 22 -6 22 -5 26 -53 8 -100 27 -153 73 -201 63 -65
111 -128 111 -145 0 -8 7 -14 15 -14 8 0 15 -9 15 -21 0 -11 13 -44 30 -73 16
-30 26 -56 23 -60 -4 -4 2 -9 12 -12 11 -3 31 -21 45 -40 33 -46 72 -84 87
-84 6 0 25 -20 41 -44 17 -24 37 -52 47 -62 61 -68 96 -113 106 -136 6 -16 18
-28 25 -28 8 0 14 -6 14 -14 0 -8 17 -28 37 -45 27 -22 37 -39 38 -61 1 -18 8
-36 16 -41 8 -5 10 -9 5 -9 -16 0 16 -30 33 -30 18 0 118 -104 127 -132 3 -10
8 -18 12 -19 4 0 92 -2 197 -4 173 -4 191 -6 205 -24 17 -22 69 -25 77 -5 3 8
11 14 18 14 8 0 21 7 30 16 9 10 26 19 38 21 12 2 36 6 54 9 25 5 33 2 43 -15
9 -18 14 -19 31 -10 35 18 153 59 172 59 10 0 29 11 43 25 26 27 73 36 96 19
9 -8 28 -8 63 0 47 11 50 13 48 41 -3 28 -2 29 7 7 8 -18 15 -22 31 -17 12 4
24 2 28 -4 9 -13 58 -5 84 14 10 7 20 23 22 35 7 35 14 36 27 3 l13 -31 45 24
c25 13 51 24 58 24 7 0 15 7 18 15 4 9 16 15 28 14 42 -4 55 1 50 16 -5 11 1
15 20 15 20 0 26 5 26 23 0 32 15 51 35 43 15 -5 16 -2 10 31 -6 33 -5 35 9
24 10 -9 16 -9 16 -3 0 6 7 9 15 6 17 -7 22 31 5 41 -17 11 -11 35 9 35 25 0
52 31 33 38 -9 3 -1 12 20 25 18 11 28 22 22 24 -7 2 -10 13 -7 23 6 23 4 24
-32 10 -21 -8 -25 -13 -16 -23 11 -15 -3 -37 -24 -37 -12 0 -51 -79 -47 -96 1
-7 -7 -14 -18 -17 -11 -3 -20 -13 -20 -25 0 -12 -9 -22 -22 -26 -41 -11 -42
-6 -8 24 18 16 31 33 27 36 -3 4 -2 14 3 23 4 9 11 37 15 61 7 44 28 91 52
118 13 13 36 82 39 117 1 10 7 21 13 23 6 2 11 14 11 27 0 13 5 27 10 30 6 4
8 11 4 16 -5 9 17 87 38 135 5 11 11 38 12 60 2 22 11 54 20 72 9 18 14 42 11
52 -4 11 -2 20 3 20 5 0 12 8 15 18 4 9 16 29 28 43 11 14 21 41 22 60 1 19 5
36 9 39 4 3 9 19 12 35 3 16 12 36 21 44 15 15 17 14 26 -1 6 -10 17 -18 24
-18 17 0 20 -36 5 -45 -6 -4 -8 -16 -4 -27 3 -11 2 -18 -3 -15 -4 3 -13 -6
-20 -19 -6 -13 -7 -26 -3 -29 16 -10 -2 -45 -23 -45 -16 0 -18 -3 -9 -12 9 -9
8 -16 -5 -30 -13 -15 -14 -21 -5 -27 9 -5 7 -12 -8 -26 -29 -26 -25 -39 8 -21
15 9 39 20 55 26 23 8 26 14 21 34 -4 17 -1 27 13 34 16 10 16 11 2 17 -14 5
-15 11 -6 36 6 16 15 29 19 29 4 0 8 7 8 15 0 8 4 15 8 15 5 0 8 10 7 23 -3
29 12 70 33 93 26 28 10 121 -22 134 -29 11 -40 38 -24 57 10 12 13 12 20 -1
5 -9 6 -21 3 -26 -3 -6 4 -10 16 -10 18 0 19 3 9 15 -10 12 -8 14 9 10 26 -5
50 57 31 80 -12 15 -5 55 11 55 5 0 9 9 9 20 0 11 5 20 11 20 8 0 8 4 1 13 -6
7 -7 18 -3 26 5 8 5 27 0 43 -9 32 4 78 21 78 6 0 9 4 6 9 -8 12 23 71 40 78
8 3 14 10 13 17 -1 6 1 18 5 27 4 8 2 29 -5 45 -6 16 -13 43 -14 59 -2 17 -6
51 -10 76 -6 35 -3 52 9 71 11 17 14 35 10 56 -4 22 -3 32 5 32 7 0 9 5 5 12
-15 24 -14 112 2 135 10 16 12 29 5 41 -5 9 -10 33 -12 52 -2 19 -11 47 -22
62 -17 26 -16 54 3 43 13 -8 23 13 13 28 -4 6 -8 21 -9 32 -2 32 -25 109 -36
123 -8 9 -6 12 6 12 19 0 21 11 4 29 -10 11 -10 13 0 7 8 -5 12 0 12 13 0 12
-6 21 -14 21 -8 0 -16 7 -20 15 -4 11 2 15 20 15 16 0 23 4 18 11 -4 7 -8 27
-10 45 -2 24 1 32 11 28 7 -3 16 -1 19 4 10 17 -25 36 -59 33 -36 -3 -56 14
-27 23 14 5 17 14 14 35 -2 16 1 39 8 51 6 12 14 37 16 54 4 31 1 34 -36 45
-22 6 -40 17 -40 24 0 18 -63 84 -88 91 -11 4 -27 20 -34 36 -7 16 -20 31 -30
33 -10 3 -22 16 -27 29 -11 28 -48 68 -62 68 -6 0 -9 6 -6 13 2 6 11 11 20 9
17 -3 34 22 33 48 -1 10 -15 17 -44 20 -33 4 -45 11 -56 31 -7 14 -12 33 -10
42 1 11 -7 19 -22 23 -29 7 -58 -2 -49 -16 3 -5 2 -10 -4 -10 -5 0 -15 -2 -23
-5 -8 -3 -18 6 -25 26 -9 22 -17 30 -28 26 -9 -4 -15 -1 -15 8 0 8 -7 15 -15
15 -9 0 -18 7 -22 16 -4 10 -13 14 -28 10 -13 -3 -38 1 -57 8 -38 16 -68 45
-49 47 6 1 16 3 21 4 6 1 18 3 29 4 21 1 75 77 65 92 -6 10 -67 6 -122 -8 -56
-14 -163 -61 -151 -67 8 -3 3 -4 -11 -3 -14 1 -27 5 -30 8 -6 8 -77 13 -127
11 -35 -2 -47 -22 -13 -22 11 0 20 -4 20 -10 0 -9 -6 -11 -42 -14 -7 -1 -16
-5 -19 -9 -4 -5 -21 5 -38 22 -37 36 -76 41 -86 10 -5 -14 -12 -18 -23 -14
-41 17 -95 25 -106 16 -6 -5 -18 -6 -25 -2 -21 13 -103 1 -145 -21 -21 -11
-56 -22 -77 -23 -21 -1 -46 -8 -55 -16 -9 -7 -37 -12 -67 -12 -78 2 -117 -13
-124 -48 -3 -16 -14 -31 -24 -34 -11 -4 -19 -13 -19 -21 0 -8 -7 -14 -16 -14
-10 0 -14 -6 -11 -14 4 -9 -3 -16 -16 -20 -33 -9 -39 -7 -30 7 4 6 -5 4 -19
-5 -18 -12 -37 -15 -61 -11 -35 5 -36 4 -46 -35 -8 -29 -19 -43 -40 -52 -17
-6 -35 -9 -40 -5 -6 3 -32 8 -58 10 -94 8 -200 29 -246 49 l-32 14 38 16 c21
9 48 14 61 10 18 -4 26 -1 30 14 5 13 19 22 44 25 25 4 40 14 47 28 6 12 13
21 18 20 13 -3 87 42 87 53 1 22 51 48 78 42 48 -12 57 -11 55 2 -2 6 0 11 5
10 4 0 15 2 24 6 9 4 24 3 33 -2 19 -10 87 9 93 26 4 13 -75 92 -93 92 -8 0
-21 -9 -29 -21z m-111 -59 c3 -5 1 -10 -4 -10 -6 0 -11 5 -11 10 0 6 2 10 4
10 3 0 8 -4 11 -10z m649 -48 c2 -4 -4 -9 -15 -9 -10 -1 -19 2 -19 8 0 11 27
12 34 1z m682 -37 c-21 -16 -32 -13 -21 4 3 6 14 11 23 11 15 -1 15 -2 -2 -15z
m-826 -40 c26 -14 29 -14 24 0 -4 8 -1 15 5 15 14 0 14 -15 1 -39 -5 -11 -21
-18 -36 -18 -15 0 -33 -8 -40 -17 -7 -10 -15 -13 -18 -7 -4 5 -2 12 3 15 4 3
11 19 14 36 7 35 8 35 47 15z m938 -85 c10 -16 10 -20 -2 -20 -7 0 -16 9 -19
20 -3 11 -2 20 2 20 3 0 12 -9 19 -20z m74 -22 c-6 -6 -16 -7 -22 -3 -9 6 -9
9 1 16 17 10 34 0 21 -13z m-417 -18 c3 -5 -3 -10 -15 -10 -12 0 -18 5 -15 10
3 6 10 10 15 10 5 0 12 -4 15 -10z m348 -150 c-4 -16 -8 -18 -19 -9 -11 9 -11
15 -3 25 15 19 28 9 22 -16z m-63 4 c0 -8 -5 -12 -10 -9 -6 4 -8 11 -5 16 9
14 15 11 15 -7z m413 -13 c3 -14 1 -18 -9 -14 -8 3 -14 14 -14 25 0 23 16 16
23 -11z m-685 -16 c-3 -3 -9 2 -12 12 -6 14 -5 15 5 6 7 -7 10 -15 7 -18z
m722 -41 c0 -8 -7 -14 -15 -14 -15 0 -21 21 -9 33 10 9 24 -2 24 -19z m-677 9
c9 -9 -13 -34 -24 -27 -14 8 -11 34 4 34 8 0 17 -3 20 -7z m-473 -75 c0 -13
-23 -5 -28 10 -2 7 2 10 12 6 9 -3 16 -11 16 -16z m720 -2 c0 -9 -30 -14 -35
-6 -4 6 3 10 14 10 12 0 21 -2 21 -4z m151 -53 c13 -16 12 -17 -3 -4 -10 7
-18 15 -18 17 0 8 8 3 21 -13z m-201 -7 c0 -3 -4 -8 -10 -11 -5 -3 -10 -1 -10
4 0 6 5 11 10 11 6 0 10 -2 10 -4z m560 -5 c0 -5 -7 -11 -15 -15 -15 -5 -20 5
-8 17 9 10 23 9 23 -2z m-340 -21 c0 -5 -10 -10 -22 -10 -19 0 -20 2 -8 10 19
13 30 13 30 0z m-150 -102 c0 -6 -6 -5 -15 2 -8 7 -15 14 -15 16 0 2 7 1 15
-2 8 -4 15 -11 15 -16z m-195 -68 c3 -5 1 -10 -4 -10 -6 0 -11 5 -11 10 0 6 2
10 4 10 3 0 8 -4 11 -10z m121 -16 c-4 -10 1 -25 10 -35 15 -16 14 -17 -5 -12
-12 3 -21 11 -21 18 0 17 11 45 17 45 3 0 2 -7 -1 -16z m-116 -38 c0 -11 -19
-15 -25 -6 -3 5 1 10 9 10 9 0 16 -2 16 -4z m-2 -60 c5 -26 -15 -43 -30 -27
-10 10 -10 15 -1 18 7 2 9 11 6 20 -4 11 -2 14 8 11 8 -3 16 -13 17 -22z
m-168 -17 c0 -5 -4 -9 -10 -9 -5 0 -10 7 -10 16 0 8 5 12 10 9 6 -3 10 -10 10
-16z m-568 -31 c-7 -7 -12 -8 -12 -2 0 14 12 26 19 19 2 -3 -1 -11 -7 -17z
m-12 -44 c0 -21 -3 -24 -13 -15 -8 6 -16 8 -20 5 -3 -3 -3 3 0 15 8 30 33 26
33 -5z m550 1 c10 -12 10 -21 1 -42 -14 -31 -16 -29 -25 20 -7 39 3 48 24 22z
m463 -19 c3 -8 -1 -17 -10 -20 -20 -8 -25 -3 -17 18 8 20 20 21 27 2z m18 -89
c-7 -7 -7 -14 0 -23 7 -8 7 -14 -1 -19 -17 -10 -11 -25 10 -25 11 0 20 -7 20
-15 0 -17 -16 -20 -25 -4 -4 6 -13 8 -20 5 -15 -5 -38 17 -28 27 3 4 1 7 -5 7
-18 0 -14 31 6 50 19 18 61 15 43 -3z m39 -48 c0 -5 -4 -9 -10 -9 -5 0 -10 7
-10 16 0 8 5 12 10 9 6 -3 10 -10 10 -16z m-25 -68 c3 -5 1 -12 -5 -16 -5 -3
-10 1 -10 9 0 18 6 21 15 7z m-2190 -78 c-3 -16 -13 -32 -21 -36 -8 -4 -14
-14 -14 -21 0 -14 -29 -31 -37 -22 -2 2 8 27 23 55 31 56 61 71 49 24z m2165
-78 c0 -9 6 -18 14 -21 15 -6 10 -44 -6 -44 -5 0 -6 -9 -3 -20 3 -11 2 -20 -3
-20 -6 0 -9 14 -8 30 1 17 -2 30 -7 30 -4 0 -5 5 -2 10 3 6 2 10 -3 10 -6 0
-8 9 -5 20 6 23 23 27 23 5z m-2250 -39 c0 -33 -20 -66 -40 -66 -25 0 -25 6 3
47 24 35 37 42 37 19z m2754 -217 c-3 -5 -10 -7 -15 -3 -5 3 -7 10 -3 15 3 5
10 7 15 3 5 -3 7 -10 3 -15z m-739 -9 c-3 -5 -13 -10 -21 -10 -8 0 -12 5 -9
10 3 6 13 10 21 10 8 0 12 -4 9 -10z m-241 -9 c3 -5 0 -11 -8 -14 -8 -3 -17 1
-20 9 -6 15 19 20 28 5z m180 -467 c4 -9 1 -23 -5 -30 -6 -7 -8 -18 -4 -24 3
-5 0 -17 -8 -25 -13 -12 -15 -10 -21 16 -11 58 20 110 38 63z m266 -44 c0 -5
-2 -10 -4 -10 -3 0 -8 5 -11 10 -3 6 -1 10 4 10 6 0 11 -4 11 -10z m-745 -39
c3 -6 -4 -15 -15 -21 -17 -9 -20 -8 -20 10 0 20 24 28 35 11z m1280 -50 c-3
-6 -11 -11 -17 -11 -6 0 -6 6 2 15 14 17 26 13 15 -4z m-815 -1 c0 -5 -5 -10
-11 -10 -5 0 -7 5 -4 10 3 6 8 10 11 10 2 0 4 -4 4 -10z m823 -62 c7 -26 3
-32 -17 -25 -9 4 -12 14 -9 26 7 27 19 27 26 -1z m-163 -168 c0 -5 -2 -10 -4
-10 -3 0 -8 5 -11 10 -3 6 -1 10 4 10 6 0 11 -4 11 -10z m-680 -390 c0 -11 -4
-20 -10 -20 -5 0 -10 9 -10 20 0 11 5 20 10 20 6 0 10 -9 10 -20z m-46 -96 c4
-9 4 -19 1 -22 -3 -3 -5 0 -5 6 0 7 -7 12 -16 12 -8 0 -12 5 -9 10 9 15 22 12
29 -6z m31 -154 c-3 -5 -13 -6 -21 -3 -12 4 -13 8 -3 14 15 9 32 2 24 -11z
m208 -215 c-5 -16 -33 -21 -33 -7 0 13 22 32 31 26 5 -2 6 -11 2 -19z m82 15
c-3 -5 -10 -10 -16 -10 -5 0 -9 5 -9 10 0 6 7 10 16 10 8 0 12 -4 9 -10z
m-240 -30 c-2 -27 -14 -37 -25 -20 -5 9 -5 19 2 27 15 19 25 16 23 -7z m-30
-80 c6 -10 -15 -50 -27 -50 -3 0 -5 8 -3 18 2 9 4 23 4 30 1 14 17 16 26 2z
m210 -100 c3 -5 1 -10 -4 -10 -6 0 -11 5 -11 10 0 6 2 10 4 10 3 0 8 -4 11
-10z m-120 -139 c-5 -22 -2 -32 12 -40 16 -9 16 -10 1 -11 -9 0 -18 -6 -21
-12 -3 -9 -10 -7 -26 7 -18 15 -24 16 -30 6 -5 -7 -11 -9 -14 -4 -7 12 1 22
41 56 42 34 45 34 37 -2z m70 -12 c11 -17 -1 -21 -15 -4 -8 9 -8 15 -2 15 6 0
14 -5 17 -11z m-280 -20 c0 -8 -9 -14 -20 -14 -11 0 -24 -3 -30 -6 -16 -11
-128 -5 -132 6 -2 7 20 12 54 13 67 2 90 5 100 15 10 11 28 2 28 -14z m-250
-118 c3 -5 1 -12 -5 -16 -5 -3 -10 1 -10 9 0 18 6 21 15 7z m185 -15 c0 -11
-19 -15 -25 -6 -3 5 1 10 9 10 9 0 16 -2 16 -4z m-380 -16 c0 -5 -4 -10 -10
-10 -5 0 -10 5 -10 10 0 6 5 10 10 10 6 0 10 -4 10 -10z m-305 -40 c0 -29 -22
-36 -48 -16 -25 19 -11 48 22 44 20 -2 26 -8 26 -28z"/>
<path d="M6095 6070 c-3 -5 -1 -11 4 -15 15 -9 2 -32 -20 -38 -15 -4 -19 -14
-19 -45 0 -38 2 -40 33 -44 27 -3 36 1 44 19 7 15 8 25 1 29 -10 6 -7 33 6 65
8 17 -39 45 -49 29z"/>
<path d="M6004 5833 c-3 -16 -10 -42 -14 -60 -4 -17 -4 -35 1 -40 6 -6 -5 -24
-27 -45 -35 -36 -35 -37 -15 -48 17 -9 22 -8 27 5 3 8 12 15 20 15 8 0 14 7
14 15 0 9 11 21 25 27 28 12 30 19 14 35 -15 15 -3 33 21 33 24 0 32 24 18 55
-8 17 -14 22 -19 14 -5 -9 -12 -8 -24 4 -23 24 -34 21 -41 -10z"/>
<path d="M7117 5563 c-2 -1 -34 -7 -72 -13 -38 -6 -72 -15 -75 -19 -3 -4 -27
-7 -55 -6 -27 1 -58 -2 -67 -7 -10 -5 -37 -11 -60 -14 -38 -5 -93 -18 -167
-40 -27 -8 -61 -38 -61 -54 0 -7 7 -7 21 0 31 17 34 5 3 -19 -34 -27 -43 -27
-37 2 4 20 3 21 -10 5 -8 -10 -20 -18 -28 -18 -11 -1 -11 -3 1 -13 20 -15 23
-52 6 -66 -11 -9 -15 -4 -20 19 -5 26 -10 30 -31 27 -14 -2 -36 -15 -49 -30
-13 -15 -30 -27 -38 -27 -8 0 -44 -15 -79 -34 -43 -23 -65 -41 -67 -55 -2 -12
-9 -21 -17 -21 -17 0 -64 -39 -48 -40 24 0 10 -52 -16 -62 -14 -5 -40 -24 -58
-43 -18 -19 -33 -31 -33 -28 0 15 -39 -31 -44 -53 -4 -14 -11 -22 -16 -19 -5
3 -11 -4 -15 -15 -3 -11 -11 -20 -16 -20 -5 0 -9 -6 -9 -14 0 -24 -33 -116
-41 -116 -12 0 -59 -53 -59 -66 0 -6 -6 -17 -13 -23 -8 -6 -12 -23 -9 -40 3
-20 -2 -33 -15 -42 -25 -19 -53 -80 -53 -117 0 -16 -7 -35 -15 -42 -8 -7 -15
-25 -15 -41 0 -16 -4 -29 -10 -29 -5 0 -13 -12 -16 -27 -4 -15 -13 -34 -21
-41 -7 -7 -14 -28 -15 -45 0 -18 -1 -42 -2 -55 -1 -12 -5 -26 -11 -30 -25 -18
-40 -81 -48 -202 -2 -30 -6 -62 -9 -70 -18 -47 -37 -157 -39 -230 0 -14 -4
-29 -9 -35 -4 -5 -9 -23 -10 -40 -6 -78 -3 -419 4 -486 6 -67 12 -81 38 -108
17 -17 28 -34 24 -38 -3 -4 6 -19 20 -35 15 -15 28 -40 30 -55 7 -76 15 -92
48 -99 17 -3 48 -24 69 -45 21 -21 44 -39 51 -39 24 0 46 35 44 71 -1 44 7 58
30 54 9 -1 23 2 30 8 8 6 16 6 25 -1 6 -5 34 -13 61 -17 27 -3 62 -16 77 -27
30 -22 32 -44 9 -91 -16 -32 -9 -42 33 -43 87 -3 83 0 80 -45 -2 -35 3 -46 30
-73 17 -17 32 -33 33 -36 2 -11 16 -46 23 -60 5 -8 17 -17 27 -19 10 -2 29
-14 41 -27 12 -13 34 -26 50 -29 34 -8 53 -15 123 -49 31 -14 71 -27 90 -29
20 -2 40 -5 45 -9 27 -15 175 -29 175 -15 0 4 7 7 16 7 9 0 12 5 8 12 -5 7 -3
8 7 2 37 -23 166 -27 192 -5 10 8 32 16 49 17 44 4 81 14 96 27 16 13 33 17
86 21 26 2 44 10 55 25 13 17 23 20 47 15 28 -5 31 -2 59 50 31 59 37 64 55
44 69 -80 147 -148 169 -148 6 0 11 -7 11 -15 0 -21 35 -36 94 -42 28 -3 56
-8 61 -12 6 -4 26 -7 45 -6 33 1 35 3 33 35 l-1 34 17 -23 c17 -22 19 -23 49
-7 17 9 33 20 37 26 3 5 28 22 55 37 28 15 50 33 50 40 0 6 6 18 13 25 28 30
67 95 67 114 0 11 13 26 30 36 18 10 30 25 30 38 0 11 4 20 9 20 13 0 44 95
39 117 -3 10 2 30 9 46 8 15 14 44 15 65 0 20 5 43 11 49 5 7 11 34 12 60 2
26 7 49 12 50 4 2 8 19 7 38 -1 19 2 35 7 35 5 0 18 15 29 33 16 26 20 50 20
132 0 55 0 118 1 140 0 22 -5 65 -11 95 -7 30 -12 62 -12 70 0 31 -31 140 -39
140 -5 0 -9 20 -9 45 0 26 -6 58 -14 73 -13 26 -20 52 -33 135 -3 20 -9 37
-13 37 -5 0 -8 17 -8 38 0 57 -4 72 -19 72 -8 0 -13 13 -13 39 0 32 -6 44 -37
72 -29 25 -37 38 -34 61 2 20 -2 28 -13 28 -10 0 -14 9 -14 28 1 30 -27 92
-41 92 -5 0 -18 16 -30 35 -17 29 -18 39 -9 54 9 14 8 26 -2 52 -8 18 -15 41
-15 52 -1 10 -8 23 -16 28 -8 4 -15 16 -16 26 -20 147 -33 183 -62 183 -6 0
-11 11 -11 25 0 19 -5 25 -22 25 -17 0 -19 3 -10 12 7 7 12 22 12 35 0 26 -20
73 -31 73 -5 0 -13 18 -20 39 -12 41 -38 57 -86 52 -25 -3 -38 14 -28 37 11
24 6 78 -10 108 -23 46 -131 127 -182 139 -18 3 -33 11 -33 16 0 5 -10 9 -23
9 -32 0 -69 37 -62 61 4 13 1 21 -12 26 -10 3 -22 12 -26 20 -4 7 -16 13 -25
13 -10 0 -24 6 -31 13 -6 6 -40 13 -74 14 -34 1 -95 4 -135 5 -40 2 -74 3 -75
1z m-280 -129 c-3 -3 -12 -4 -19 -1 -8 3 -5 6 6 6 11 1 17 -2 13 -5z m-62 -14
c-11 -4 -28 -18 -38 -30 -12 -14 -25 -19 -40 -16 -12 3 -16 3 -9 0 10 -5 9
-10 -4 -25 -23 -25 -38 -24 -24 1 6 11 7 20 3 20 -21 1 85 59 107 59 23 0 23
-1 5 -9z m-275 -174 c0 -2 -11 -6 -25 -8 -14 -3 -25 -1 -25 3 0 5 11 9 25 9
14 0 25 -2 25 -4z m-390 -340 c0 -3 -4 -8 -10 -11 -5 -3 -10 -1 -10 4 0 6 5
11 10 11 6 0 10 -2 10 -4z m-35 -36 c-3 -5 -12 -10 -18 -10 -7 0 -6 4 3 10 19
12 23 12 15 0z m2025 -430 c0 -5 -2 -10 -4 -10 -3 0 -8 5 -11 10 -3 6 -1 10 4
10 6 0 11 -4 11 -10z m-60 -50 c0 -5 -4 -10 -10 -10 -5 0 -10 5 -10 10 0 6 5
10 10 10 6 0 10 -4 10 -10z m-2240 -119 c0 -6 -4 -13 -10 -16 -5 -3 -10 1 -10
9 0 9 5 16 10 16 6 0 10 -4 10 -9z m-48 -188 c-5 -24 -6 -25 -12 -8 -8 21 -4
35 9 35 5 0 6 -12 3 -27z m-22 -55 c0 -7 -4 -19 -9 -27 -7 -10 -9 -7 -8 12 2
26 17 39 17 15z m794 -1469 c-3 -5 0 -9 5 -9 6 0 11 -11 11 -25 0 -14 4 -25 9
-25 6 0 18 -13 27 -29 9 -16 23 -27 29 -25 6 3 18 -2 25 -11 7 -8 23 -15 35
-15 25 0 42 -28 22 -36 -8 -3 -26 0 -41 6 -15 5 -47 10 -70 10 -47 0 -67 15
-86 64 -8 23 -7 34 6 54 13 19 14 30 5 49 -16 34 -14 39 9 18 11 -10 17 -22
14 -26z m1110 -25 c8 -21 0 -33 -22 -29 -9 1 -25 -2 -34 -6 -21 -11 -34 7 -18
26 6 8 21 16 33 18 12 2 25 5 28 6 4 0 10 -6 13 -15z m-869 -124 c4 6 10 8 14
5 5 -2 31 -5 60 -6 33 -2 51 -7 51 -15 0 -8 -10 -11 -31 -7 -16 2 -36 0 -43
-6 -9 -8 -24 -5 -54 9 -23 11 -42 23 -42 26 0 2 9 0 19 -6 14 -7 22 -7 26 0z"/>
<path d="M6531 2444 c0 -11 3 -14 6 -6 3 7 2 16 -1 19 -3 4 -6 -2 -5 -13z"/>
<path d="M1984 5522 c2 -4 -7 -13 -20 -19 -20 -9 -26 -9 -31 3 -7 18 -33 18
-59 0 -11 -8 -29 -13 -40 -12 -34 5 -103 -72 -87 -97 15 -25 12 -47 -8 -58
-20 -10 -21 -9 -17 20 5 32 -5 50 -17 31 -3 -5 -17 -10 -30 -10 -15 0 -26 -7
-30 -20 -3 -11 -9 -19 -13 -17 -4 1 -24 -11 -44 -28 -30 -24 -36 -34 -32 -55
3 -15 2 -20 -3 -13 -6 8 -20 0 -47 -27 -31 -32 -38 -46 -39 -80 -1 -31 -4 -39
-15 -35 -10 4 -13 0 -9 -12 21 -68 21 -69 3 -54 -23 19 -31 8 -29 -41 2 -31
-4 -49 -22 -70 -25 -30 -34 -55 -15 -43 6 3 7 -1 4 -9 -3 -9 -11 -13 -16 -10
-13 8 -67 -56 -68 -81 0 -11 -9 -26 -21 -33 -12 -8 -18 -19 -15 -28 3 -7 -3
-22 -12 -31 -32 -32 -54 -73 -40 -73 7 -1 0 -8 -15 -16 -21 -11 -27 -21 -24
-36 4 -15 -1 -22 -24 -30 -29 -10 -29 -11 -13 -29 17 -19 17 -20 -5 -35 -17
-12 -21 -22 -16 -38 15 -49 14 -66 -6 -66 -12 0 -19 -7 -19 -19 0 -11 -10 -27
-22 -36 -15 -10 -19 -18 -12 -23 17 -11 36 -52 25 -52 -6 0 -20 -10 -31 -22
l-21 -22 36 -33 c27 -25 35 -40 35 -67 0 -19 -5 -38 -11 -41 -7 -5 -5 -15 5
-31 9 -13 16 -34 16 -47 0 -13 11 -41 25 -61 14 -20 28 -54 31 -76 4 -22 17
-54 30 -71 13 -18 21 -36 18 -41 -7 -11 23 -58 53 -81 16 -13 23 -29 23 -52 0
-27 3 -32 19 -28 13 3 20 -2 25 -20 3 -14 3 -33 0 -41 -3 -9 -2 -22 4 -29 6
-7 7 -28 3 -53 -7 -35 -3 -52 21 -103 26 -56 31 -93 19 -149 -1 -1 -10 2 -21
8 -20 11 -30 -3 -11 -14 5 -4 6 -18 1 -34 -5 -15 -13 -49 -18 -75 -8 -38 -7
-47 4 -43 16 6 23 -30 11 -66 -5 -17 -4 -34 2 -47 6 -11 11 -29 11 -40 0 -14
6 -21 19 -21 11 0 23 -9 26 -20 3 -11 15 -25 26 -31 17 -9 18 -13 8 -26 -11
-12 -7 -20 26 -47 25 -22 34 -35 27 -40 -18 -11 -15 -18 18 -54 17 -18 30 -42
30 -52 0 -19 44 -60 63 -60 6 0 33 -23 59 -50 50 -53 68 -61 68 -32 1 15 2 14
12 -3 6 -11 16 -23 21 -27 17 -10 36 2 30 20 -5 11 -2 14 10 9 8 -3 21 1 28
10 12 13 15 11 24 -18 6 -18 17 -35 24 -37 6 -2 10 0 9 5 -10 28 57 7 71 -23
12 -28 23 -30 41 -9 10 12 17 9 47 -23 32 -34 36 -35 48 -19 15 21 35 22 35 2
0 -8 4 -15 9 -15 5 0 14 7 21 15 16 19 36 19 44 0 6 -17 36 -21 36 -5 0 6 -4
10 -9 10 -5 0 -17 7 -25 16 -20 20 -10 40 11 22 13 -10 15 -9 11 7 -2 13 4 24
17 31 47 25 114 -48 79 -87 -14 -16 -14 -18 3 -27 12 -7 25 -7 37 0 10 6 21 6
25 1 3 -4 30 -9 59 -10 47 -2 52 0 42 13 -21 24 -4 27 19 3 19 -20 26 -22 98
-16 179 15 209 19 238 27 17 5 53 12 80 15 81 10 156 25 220 45 33 11 89 24
125 30 36 7 74 20 85 30 11 10 38 20 60 24 40 5 147 40 217 70 34 15 85 28
153 40 17 3 57 19 90 35 33 16 75 29 93 30 71 3 415 193 501 277 14 14 69 61
121 104 108 90 138 121 170 179 13 22 32 43 42 47 10 3 18 13 18 22 0 10 14
45 30 79 17 34 27 68 24 77 -3 9 -1 16 6 16 15 0 3 41 -18 58 -9 7 -22 10 -29
8 -16 -6 -16 -6 -2 49 10 41 9 46 -17 80 -22 27 -34 34 -51 30 -14 -3 -31 3
-50 19 -15 13 -38 26 -50 30 -13 4 -23 15 -23 26 0 10 -4 22 -10 25 -5 3 -10
13 -10 22 0 9 -14 29 -32 45 -25 22 -38 27 -60 23 -23 -6 -29 -2 -37 18 -5 13
-30 36 -55 51 -31 18 -48 36 -52 54 -4 15 -13 37 -21 50 -12 19 -20 22 -48 16
-30 -5 -34 -3 -37 17 -2 13 -14 29 -28 36 -13 6 -28 21 -32 33 -7 20 -36 36
-84 44 -14 3 -32 10 -39 16 -10 9 -16 7 -22 -7 -12 -25 -8 -76 6 -81 6 -2 11
-19 11 -39 0 -40 -23 -42 -28 -2 -5 31 -22 51 -38 45 -21 -8 -34 27 -34 87 0
74 -30 100 -93 84 -18 -5 -27 -13 -24 -21 4 -9 -2 -13 -17 -12 -15 1 -22 6
-19 16 6 27 -14 42 -55 43 -23 1 -39 5 -37 11 16 55 15 64 -14 76 -36 15 -51
7 -45 -23 l5 -22 -10 23 c-6 12 -8 29 -5 37 4 10 -3 18 -21 25 -15 6 -32 23
-38 39 -6 16 -21 34 -33 39 -18 9 -23 7 -33 -14 -6 -13 -18 -24 -26 -24 -9 0
-14 4 -11 9 4 5 3 17 -1 27 -6 16 -7 16 -18 0 -11 -14 -14 -14 -18 -2 -3 8 1
17 9 20 33 13 -6 78 -43 71 -10 -2 -24 -4 -31 -4 -7 -1 -19 -16 -27 -33 l-13
-33 -11 28 c-14 35 -35 57 -55 57 -8 0 -18 9 -21 20 -3 11 -11 20 -17 20 -7 0
-8 15 -4 40 6 38 5 40 -13 31 -21 -12 -46 9 -53 44 -2 15 -10 19 -31 17 -21
-3 -29 2 -38 22 -7 14 -18 26 -26 26 -7 0 -13 8 -13 18 0 21 -39 62 -59 62 -7
0 -9 4 -6 10 3 6 -1 7 -10 4 -10 -4 -20 4 -31 27 -33 73 -46 90 -62 87 -9 -2
-18 -12 -20 -23 -5 -27 -22 -46 -34 -39 -5 4 -5 10 0 17 5 7 6 21 1 32 -6 17
-8 17 -8 3 -1 -10 -3 -18 -6 -18 -14 0 -45 39 -65 80 -30 64 -134 148 -177
145 -29 -3 -32 0 -38 35 -7 44 -31 80 -42 65 -11 -14 -56 -39 -49 -26 4 6 2
20 -4 31 -10 19 -11 19 -45 0 -35 -19 -40 -17 -36 18 3 17 -38 15 -45 -3 -9
-22 -23 -18 -17 5 3 11 0 20 -6 20 -6 0 -16 11 -21 24 -5 13 -19 28 -32 32
-13 4 -28 14 -34 22 -9 12 -15 12 -33 2 -13 -7 -20 -17 -17 -26 3 -8 -1 -14
-8 -14 -17 0 -38 24 -29 33 3 4 0 7 -8 7 -8 0 -21 15 -28 33 -10 24 -15 28
-18 15 -7 -26 -22 -22 -34 9 -8 21 -12 24 -19 13 -7 -11 -12 -11 -34 3 -27 18
-40 22 -32 9z m35 -59 c-7 -20 -6 -30 6 -43 11 -12 13 -20 6 -25 -6 -3 -11 0
-11 7 0 7 -9 2 -19 -11 l-19 -25 -25 30 c-15 17 -21 31 -15 35 6 4 7 16 3 28
-7 22 10 30 18 9 4 -8 6 -7 6 4 1 17 26 28 48 20 8 -3 9 -11 2 -29z m-89 -64
c0 -5 -4 -9 -10 -9 -5 0 -10 7 -10 16 0 8 5 12 10 9 6 -3 10 -10 10 -16z m380
-39 c0 -5 -4 -10 -10 -10 -5 0 -10 5 -10 10 0 6 5 10 10 10 6 0 10 -4 10 -10z
m-530 -55 c0 -7 -6 -18 -14 -24 -11 -10 -16 -8 -21 8 -3 12 -4 25 0 30 8 13
35 2 35 -14z m-130 -3 c0 -13 -12 -22 -22 -16 -10 6 -1 24 13 24 5 0 9 -4 9
-8z m1252 -424 c-7 -7 -12 -8 -12 -2 0 6 3 14 7 17 3 4 9 5 12 2 2 -3 -1 -11
-7 -17z m-1535 -90 c-14 -8 -31 18 -22 33 4 6 12 3 20 -8 10 -13 10 -20 2 -25z
m2563 -583 c0 -8 -4 -15 -10 -15 -5 0 -10 7 -10 15 0 8 5 15 10 15 6 0 10 -7
10 -15z m226 -272 c-10 -10 -19 5 -10 18 6 11 8 11 12 0 2 -7 1 -15 -2 -18z
m-2342 -1448 c16 -12 17 -18 8 -27 -9 -9 -12 -9 -12 0 0 7 -9 12 -20 12 -11 0
-20 7 -20 15 0 19 19 19 44 0z m176 -85 c6 -11 7 -20 2 -20 -6 0 -12 9 -15 20
-3 11 -3 20 -1 20 2 0 8 -9 14 -20z"/>
<path d="M6481 5374 c0 -11 3 -14 6 -6 3 7 2 16 -1 19 -3 4 -6 -2 -5 -13z"/>
<path d="M5856 5325 c4 -8 10 -15 15 -15 5 0 9 7 9 15 0 8 -7 15 -15 15 -9 0
-12 -6 -9 -15z"/>
<path d="M2252 2317 c2 -15 7 -28 13 -28 16 -1 16 16 0 36 -15 19 -15 19 -13
-8z"/>
<path d="M6770 2204 c0 -8 5 -12 10 -9 6 3 10 10 10 16 0 5 -4 9 -10 9 -5 0
-10 -7 -10 -16z"/>
</g>
</svg>
